PathFileType	4	(X/Y/Z)	TVC_9_BWA2_walk_RCNL2025.trc
DataRate	CameraRate	NumFrames	NumMarkers	Units	OrigDataRate	OrigDataStartFrame	OrigNumFrames
100	100	11	27	mm	100	92	364
Frame#	Time	R_Shoulder			L_Shoulder			C7			J_Notch			R_Elbow			L_Elbow			R_Wrist			L_Wrist			R_Asis			L_Asis			R_Psis			L_Psis			Sacral			Thoracic			Sternum			R_Thigh_Lateral			R_Knee_Lateral			R_Shank_Lateral			R_Ankle_Lateral			R_Heel			R_Toe			L_Thigh_Lateral			L_Knee_Lateral			L_Shank_Lateral			L_Ankle_Lateral			L_Heel			L_Toe		
		X1	Y1	Z1	X2	Y2	Z2	X3	Y3	Z3	X4	Y4	Z4	X5	Y5	Z5	X6	Y6	Z6	X7	Y7	Z7	X8	Y8	Z8	X9	Y9	Z9	X10	Y10	Z10	X11	Y11	Z11	X12	Y12	Z12	X13	Y13	Z13	X14	Y14	Z14	X15	Y15	Z15	X16	Y16	Z16	X17	Y17	Z17	X18	Y18	Z18	X19	Y19	Z19	X20	Y20	Z20	X21	Y21	Z21	X22	Y22	Z22	X23	Y23	Z23	X24	Y24	Z24	X25	Y25	Z25	X26	Y26	Z26	X27	Y27	Z27
92	0.91000000	-1718.876831	1386.672485	168.086121	-1735.897095	1348.839722	-224.439865	-1783.302124	1437.167969	-41.111759	-1637.750366	1334.191895	-19.868412	-1887.083740	1125.020752	305.384064	-1685.606079	1005.177917	-270.694397	-1892.682312	872.239960	294.455261	-1525.651062	825.506042	-240.960777	-1702.794800	929.261597	159.926132	-1748.500732	933.035339	-140.324112	-1907.116821	959.846130	89.623268	-1921.729736	963.116516	-8.766668	-1914.423279	961.481323	40.428300	-1895.071899	1171.566406	10.834171	-1590.688232	1138.906494	-7.546896	-1612.819580	551.064575	229.520584	-1603.410645	478.095642	163.173141	-1646.249634	333.129150	218.144302	-1753.039917	127.045113	158.405914	-1811.695923	120.922134	99.203941	-1633.553833	82.225769	120.884293	-1776.071777	563.511414	-162.049286	-1791.856934	436.325287	-93.456688	-1823.654053	290.732941	-130.784637	-1859.974609	73.311844	-36.969524	-1903.890625	52.011787	28.506767	-1721.368530	39.566250	-33.331238
93	0.92000000	-1711.836304	1387.067749	167.349625	-1728.521973	1347.973511	-225.073608	-1776.036377	1436.696045	-41.992733	-1630.591919	1333.739380	-20.418222	-1883.091064	1126.850098	303.674652	-1675.891724	1004.715576	-270.645477	-1893.048096	874.154572	293.252808	-1513.557617	827.222351	-240.189575	-1695.159668	928.856689	159.740311	-1741.478516	932.914307	-140.714249	-1899.503906	959.265198	89.614342	-1914.283447	962.701355	-8.592186	-1906.893677	960.983276	40.511078	-1887.721436	1171.238403	10.616913	-1583.436646	1138.525513	-7.750657	-1604.488770	550.586121	229.593140	-1593.561523	477.811462	162.996048	-1631.629150	331.133728	217.190186	-1729.805664	121.007126	155.814194	-1787.892822	113.185387	96.233040	-1608.649536	80.243225	118.609886	-1771.591187	563.260193	-162.028015	-1788.563477	436.170319	-93.338898	-1821.570923	290.757507	-130.607468	-1859.560791	73.629654	-36.689510	-1903.681396	52.595112	28.803143	-1721.199097	39.434895	-33.370129
94	0.93000000	-1704.790527	1387.361206	166.690582	-1721.229614	1347.069092	-225.631531	-1768.813354	1436.148560	-42.772141	-1623.433960	1333.234741	-20.912216	-1878.901245	1128.526978	302.089417	-1666.254150	1004.235657	-270.535858	-1892.912170	875.967896	292.153946	-1501.749634	828.731995	-239.410004	-1687.469604	928.391663	159.604828	-1734.431274	932.733704	-141.098358	-1891.821533	958.573547	89.633209	-1906.761230	962.164185	-8.384789	-1899.291382	960.368866	40.624210	-1880.348389	1170.801514	10.457870	-1576.184448	1138.103760	-7.932571	-1596.909912	549.665283	229.797089	-1584.209717	477.270142	162.899902	-1617.460815	329.078644	216.254532	-1706.784424	115.294151	153.099228	-1764.233398	105.868462	93.107735	-1584.135864	78.433693	116.180023	-1766.775757	562.957764	-161.984253	-1785.028564	435.966278	-93.231529	-1819.330566	290.765472	-130.431168	-1859.140015	73.985695	-36.423294	-1903.437866	53.207371	29.111038	-1720.995117	39.310047	-33.399212
95	0.94000000	-1697.732300	1387.556885	166.116241	-1714.019653	1346.143066	-226.109665	-1761.625977	1435.534790	-43.441624	-1616.268311	1332.687988	-21.346550	-1874.510742	1130.050659	300.636963	-1656.681152	1003.752136	-270.369171	-1892.256226	877.663666	291.161896	-1490.229797	830.034882	-238.639381	-1679.714111	927.876038	159.516022	-1727.346802	932.495483	-141.473389	-1884.062012	957.783081	89.680481	-1899.157104	961.516724	-8.145994	-1891.609558	959.649902	40.767243	-1872.944824	1170.262573	10.358814	-1568.922974	1137.651611	-8.097623	-1590.064331	548.324585	230.084229	-1575.346313	476.481903	162.855728	-1603.687134	326.956665	215.324142	-1684.000000	109.935997	150.307922	-1740.772583	98.996628	89.900642	-1560.037476	76.836349	113.596428	-1761.631470	562.609619	-161.920227	-1781.261597	435.717926	-93.136368	-1816.955933	290.775146	-130.261459	-1858.715576	74.389610	-36.181759	-1903.161377	53.862831	29.414328	-1720.766846	39.198418	-33.422421
96	0.95000000	-1690.653442	1387.658936	165.633972	-1706.888062	1345.212524	-226.503998	-1754.466309	1434.864868	-43.992981	-1609.086426	1332.109497	-21.716906	-1869.914795	1131.420166	299.324982	-1647.161987	1003.279236	-270.150024	-1891.062561	879.226471	290.279877	-1478.996155	831.137299	-237.890121	-1671.882812	927.318604	159.470291	-1720.210693	932.199829	-141.835205	-1876.217773	956.906555	89.756439	-1891.464722	960.771667	-7.877593	-1883.841248	958.839111	40.939423	-1865.502319	1169.629639	10.321216	-1561.641968	1137.179077	-8.250140	-1583.909668	546.600037	230.400772	-1566.960083	475.459839	162.834274	-1590.250488	324.769379	214.383484	-1661.476196	104.954231	147.490067	-1717.563110	92.587173	86.686729	-1536.376587	75.483063	110.874344	-1756.182007	562.225342	-161.842392	-1777.278687	435.433411	-93.057068	-1814.464600	290.801575	-130.106461	-1858.286133	74.848297	-35.975468	-1902.855469	54.576477	29.695187	-1720.530273	39.101425	-33.441879
97	0.96000000	-1683.545166	1387.672241	165.251328	-1699.827393	1344.294678	-226.810455	-1747.325928	1434.149414	-44.418354	-1601.879761	1331.509888	-22.018549	-1865.106323	1132.633423	298.160034	-1637.688599	1002.830933	-269.883820	-1889.314514	880.641357	289.511269	-1468.047607	832.047821	-237.166740	-1663.965210	926.727539	159.463928	-1713.005371	931.845398	-142.178711	-1868.282104	955.957275	89.861122	-1883.677490	959.942261	-7.581550	-1875.979797	957.949768	41.139786	-1858.012329	1168.911621	10.346292	-1554.330444	1136.696167	-8.393532	-1578.384766	544.537903	230.693451	-1559.036987	474.220001	162.807632	-1577.102539	322.528900	213.417587	-1639.242188	100.362671	144.696991	-1694.657593	86.650352	83.538536	-1513.175293	74.396622	108.049522	-1750.463867	561.817200	-161.760162	-1773.101929	435.123474	-92.998169	-1811.866699	290.855194	-129.976227	-1857.847046	75.366211	-35.814022	-1902.524536	55.362431	29.936157	-1720.301636	39.015469	-33.457668
98	0.97000000	-1676.397827	1387.601807	164.975922	-1692.826782	1343.406738	-227.024887	-1740.195801	1433.399414	-44.710350	-1594.639771	1330.900513	-22.246386	-1860.075806	1133.686646	297.147186	-1628.255493	1002.420532	-269.576447	-1886.996765	881.893341	288.859360	-1457.386292	832.775055	-236.464684	-1655.951294	926.110107	159.493149	-1705.711548	931.429626	-142.498215	-1860.248901	954.949097	89.994415	-1875.789429	959.042358	-7.259923	-1868.019165	956.995728	41.367246	-1850.466187	1168.118042	10.435055	-1546.976318	1136.212280	-8.530053	-1573.414062	542.190979	230.912949	-1551.559204	472.781372	162.751022	-1564.210938	320.257233	212.415649	-1617.335693	96.167877	141.979431	-1672.110718	81.189728	80.521622	-1490.457520	73.589928	105.181404	-1744.521240	561.398743	-161.683823	-1768.759155	434.800537	-92.963669	-1809.166260	290.942291	-129.881607	-1857.391357	75.946358	-35.705074	-1902.172974	56.232956	30.122337	-1720.093506	38.934319	-33.469105
99	0.98000000	-1669.201294	1387.452393	164.815277	-1685.872192	1342.565186	-227.143097	-1733.065918	1432.626221	-44.862236	-1587.357788	1330.292358	-22.395046	-1854.810669	1134.573853	296.289948	-1618.860107	1002.059998	-269.234222	-1884.095459	882.967255	288.327202	-1447.017029	833.325562	-235.774239	-1647.831299	925.472778	159.554001	-1698.309326	930.950195	-142.788071	-1852.112915	953.895996	90.156151	-1867.794434	958.085693	-6.914821	-1859.953674	955.990845	41.620665	-1842.855347	1167.259033	10.588332	-1539.566772	1135.736816	-8.660588	-1568.912354	539.615051	231.016068	-1544.503906	471.165833	162.644485	-1551.566406	317.983887	211.374496	-1595.807861	92.369667	139.385590	-1649.981323	76.202820	77.690910	-1468.252075	73.066017	102.351074	-1738.400513	560.981995	-161.622192	-1764.281738	434.476959	-92.955620	-1806.367798	291.068237	-129.833221	-1856.911743	76.591385	-35.653275	-1901.803101	57.197769	30.243624	-1719.912720	38.851440	-33.475849
100	0.99000000	-1661.944824	1387.228882	164.776855	-1678.946899	1341.785522	-227.160843	-1725.926147	1431.841064	-44.868061	-1580.025146	1329.696777	-22.459002	-1849.295288	1135.286499	295.590118	-1609.503418	1001.759766	-268.863464	-1880.598633	883.847412	287.917351	-1436.942383	833.704559	-235.085884	-1639.596680	924.821533	159.642456	-1690.780396	930.405823	-143.043594	-1843.869629	952.812256	90.346214	-1859.686768	957.086121	-6.548387	-1851.778198	954.949188	41.898914	-1835.171631	1166.345337	10.806794	-1532.088379	1135.279297	-8.784466	-1564.792603	536.866272	230.968796	-1537.841309	469.398041	162.474319	-1539.185791	315.741669	210.301392	-1574.725952	88.961342	136.959045	-1628.336060	71.682205	75.087990	-1446.597168	72.819283	99.656082	-1732.146973	560.574829	-161.580612	-1759.704224	434.164307	-92.972824	-1803.484009	291.241272	-129.839264	-1856.402466	77.304436	-35.659344	-1901.415283	58.263321	30.296566	-1719.760620	38.761536	-33.478371
101	1.00000000	-1654.618042	1386.936279	164.867767	-1672.031860	1341.081909	-227.073990	-1718.765625	1431.055542	-44.722813	-1572.633423	1329.124878	-22.432688	-1843.511230	1135.813599	295.047729	-1600.190186	1001.528259	-268.470245	-1876.496521	884.517639	287.631691	-1427.161133	833.920105	-234.394737	-1631.239746	924.162048	159.754608	-1683.109375	929.797668	-143.261490	-1835.515503	951.711975	90.564568	-1851.461426	956.057129	-6.162806	-1843.488464	953.884552	42.200881	-1827.407104	1165.388428	11.090932	-1524.527344	1134.849121	-8.899292	-1560.973755	533.998962	230.750443	-1531.534424	467.505554	162.234222	-1527.112915	313.561584	209.214966	-1554.174927	85.930038	134.736816	-1607.252197	67.616699	72.739197	-1425.546021	72.834770	97.201584	-1725.803101	560.179871	-161.559464	-1755.063232	433.873047	-93.010185	-1800.542480	291.475098	-129.902954	-1855.861084	78.089432	-35.719727	-1901.007690	59.432175	30.284985	-1719.633423	38.661476	-33.478157
102	1.01000000	-1647.210205	1386.579346	165.094696	-1665.106323	1340.467285	-226.878601	-1711.573486	1430.281128	-44.422596	-1565.174316	1328.587402	-22.310684	-1837.436890	1136.141479	294.661102	-1590.928833	1001.371765	-268.060211	-1871.781250	884.961639	287.471069	-1417.670227	833.984375	-233.705162	-1622.754150	923.500366	159.886948	-1675.284424	929.130005	-143.439651	-1827.048218	950.609314	90.811325	-1843.114624	955.012024	-5.760319	-1835.081421	952.810669	42.525503	-1819.554688	1164.400146	11.441042	-1516.870239	1134.455688	-9.000772	-1557.387207	531.065552	230.357742	-1525.537598	465.518768	161.925766	-1515.414551	311.468079	208.143646	-1534.257690	83.257149	132.747223	-1586.820190	63.992275	70.655014	-1405.169067	73.084663	95.088509	-1719.410400	559.796448	-161.553802	-1750.395508	433.612610	-93.058937	-1797.585571	291.788422	-130.020493	-1855.288818	78.950806	-35.826698	-1900.576904	60.703110	30.219101	-1719.524658	38.550789	-33.477398
